<svg role="img" viewBox="0 0 24 24" xmlns="http://www.w3.org/2000/svg"><title>Google</title><path fill="#4285F4" d="M23.49 12.27c0-.79-.07-1.54-.2-2.27H12v4.29h6.47c-.28 1.5-1.13 2.77-2.4 3.62v3.01h3.89c2.27-2.09 3.53-5.17 3.53-8.65Z"/><path fill="#34A853" d="M12 24c3.24 0 5.95-1.07 7.93-2.91l-3.88-3.01c-1.08.72-2.45 1.15-4.05 1.15-3.13 0-5.78-2.11-6.73-4.96H1.26v3.11A11.99 11.99 0 0 0 12 24Z"/><path fill="#FBBC05" d="M5.27 14.27A7.21 7.21 0 0 1 4.88 12c0-.79.14-1.55.39-2.27V6.62H1.26A11.94 11.94 0 0 0 0 12c0 1.93.46 3.76 1.26 5.38l4.01-3.11Z"/><path fill="#EA4335" d="M12 4.77c1.76 0 3.34.61 4.59 1.8l3.43-3.43C17.94 1.2 15.23 0 12 0A11.99 11.99 0 0 0 1.26 6.62l4.01 3.11C6.22 6.88 8.87 4.77 12 4.77Z"/></svg>
