<svg xmlns="http://www.w3.org/2000/svg" viewBox="0 0 200 200" width="200" height="200" role="img" aria-label="Klaus vein"><style>.v-bar{transform-box:fill-box;transform-origin:center;animation:v-tense 0.7s ease-in-out infinite}@keyframes v-tense{0%,100%{transform:translate(0,0)}25%{transform:translate(-1px,1px)}75%{transform:translate(1px,-1px)}}.v-vein{transform-box:fill-box;transform-origin:148px 36px;animation:v-pulse 0.9s ease-in-out infinite}@keyframes v-pulse{0%,100%{transform:scale(0.9)}50%{transform:scale(1.15)}}</style><circle cx="100" cy="100" r="92" fill="#E6E6E3"/><rect class="v-bar" x="49" y="77" width="14" height="46" rx="7" fill="#1F1F1E"/><rect class="v-bar" x="71" y="68" width="14" height="64" rx="7" fill="#1F1F1E"/><rect class="v-bar" x="93" y="60" width="14" height="80" rx="7" fill="#1F1F1E"/><rect class="v-bar" x="115" y="68" width="14" height="64" rx="7" fill="#1F1F1E"/><rect class="v-bar" x="137" y="77" width="14" height="46" rx="7" fill="#1F1F1E"/><g class="v-vein"><path d="M148,28 Q152,32 156,28" stroke="#D97757" stroke-width="3" fill="none" stroke-linecap="round"/><path d="M148,44 Q152,40 156,44" stroke="#D97757" stroke-width="3" fill="none" stroke-linecap="round"/><path d="M140,36 Q144,32 144,28 M144,44 Q144,40 140,36" stroke="#D97757" stroke-width="3" fill="none" stroke-linecap="round"/><path d="M164,36 Q160,32 160,28 M160,44 Q160,40 164,36" stroke="#D97757" stroke-width="3" fill="none" stroke-linecap="round"/></g></svg>
