<svg xmlns="http://www.w3.org/2000/svg" viewBox="0 0 200 200" width="200" height="200" role="img" aria-label="Klaus sparkle"><style>.sp-bar{transform-box:fill-box;transform-origin:center;animation:sp-br var(--dur) ease-in-out var(--delay) infinite}@keyframes sp-br{0%,100%{transform:scaleY(1)}50%{transform:scaleY(0.94)}}.sp-star{transform-box:fill-box;transform-origin:var(--cx) var(--cy);animation:sp-tw 1.8s ease-in-out var(--sd) infinite}@keyframes sp-tw{0%,100%{transform:scale(0.4);opacity:0.3}50%{transform:scale(1);opacity:1}}</style><circle cx="100" cy="100" r="92" fill="#E6E6E3"/><rect class="sp-bar" style="--delay:0.0s;--dur:3s" x="49" y="71" width="14" height="58" rx="7" fill="#1F1F1E"/><rect class="sp-bar" style="--delay:0.15s;--dur:3s" x="71" y="59" width="14" height="82" rx="7" fill="#1F1F1E"/><rect class="sp-bar" style="--delay:0.3s;--dur:3s" x="93" y="48" width="14" height="104" rx="7" fill="#1F1F1E"/><rect class="sp-bar" style="--delay:0.44999999999999996s;--dur:3s" x="115" y="59" width="14" height="82" rx="7" fill="#1F1F1E"/><rect class="sp-bar" style="--delay:0.6s;--dur:3s" x="137" y="71" width="14" height="58" rx="7" fill="#1F1F1E"/><polygon class="sp-star" style="--cx:40px;--cy:38px;--sd:0s" points="40,30 42.4,35.6 48,38 42.4,40.4 40,46 37.6,40.4 32,38 37.6,35.6" fill="#D97757"/><polygon class="sp-star" style="--cx:160px;--cy:50px;--sd:0.4s" points="160,44 161.8,48.2 166,50 161.8,51.8 160,56 158.2,51.8 154,50 158.2,48.2" fill="#D97757"/><polygon class="sp-star" style="--cx:155px;--cy:25px;--sd:0.8s" points="155,20 156.5,23.5 160,25 156.5,26.5 155,30 153.5,26.5 150,25 153.5,23.5" fill="#D97757"/></svg>
