<?xml version="1.0" encoding="UTF-8"?>
<svg xmlns="http://www.w3.org/2000/svg" width="512" height="308" viewBox="0 0 512 308" fill="none">
  <rect width="512" height="308" rx="22" fill="#141312"/>
  <rect x="1" y="1" width="510" height="306" rx="21" stroke="rgba(255,255,255,0.08)"/>
  <text x="20" y="28" font-family="ui-sans-serif, system-ui, sans-serif" font-size="13" font-weight="700" fill="#ffffff">Flow-Icons</text>
  
      <g>
        <rect x="16" y="16" width="108" height="80" rx="16" fill="rgba(255,255,255,0.03)" stroke="rgba(255,255,255,0.12)"/>
        <circle cx="70" cy="44" r="18" fill="rgba(20,19,18,0.9)" stroke="rgba(255,255,255,0.12)"/>
        <svg x="65" y="32" xmlns="http://www.w3.org/2000/svg" width="22" height="22" viewBox="0 0 24 24" fill="none" stroke="#f4efe9" stroke-width="2" stroke-linecap="round" stroke-linejoin="round" class="lucide lucide-search" aria-hidden="true"><path d="m21 21-4.34-4.34"></path><circle cx="11" cy="11" r="8"></circle></svg>
        <text x="76" y="84" text-anchor="middle" font-family="ui-sans-serif, system-ui, sans-serif" font-size="12" font-weight="600" fill="#f4efe9">Suchen</text>
      </g>
    

      <g>
        <rect x="136" y="16" width="108" height="80" rx="16" fill="rgba(255,255,255,0.03)" stroke="rgba(255,255,255,0.12)"/>
        <circle cx="190" cy="44" r="18" fill="rgba(20,19,18,0.9)" stroke="rgba(255,255,255,0.12)"/>
        <svg x="185" y="32" xmlns="http://www.w3.org/2000/svg" width="22" height="22" viewBox="0 0 24 24" fill="none" stroke="#f4efe9" stroke-width="2" stroke-linecap="round" stroke-linejoin="round" class="lucide lucide-terminal" aria-hidden="true"><path d="M12 19h8"></path><path d="m4 17 6-6-6-6"></path></svg>
        <text x="196" y="84" text-anchor="middle" font-family="ui-sans-serif, system-ui, sans-serif" font-size="12" font-weight="600" fill="#f4efe9">Terminal</text>
      </g>
    

      <g>
        <rect x="256" y="16" width="108" height="80" rx="16" fill="rgba(255,255,255,0.03)" stroke="rgba(255,255,255,0.12)"/>
        <circle cx="310" cy="44" r="18" fill="rgba(20,19,18,0.9)" stroke="rgba(255,255,255,0.12)"/>
        <svg x="305" y="32" xmlns="http://www.w3.org/2000/svg" width="22" height="22" viewBox="0 0 24 24" fill="none" stroke="#f4efe9" stroke-width="2" stroke-linecap="round" stroke-linejoin="round" class="lucide lucide-file-text" aria-hidden="true"><path d="M6 22a2 2 0 0 1-2-2V4a2 2 0 0 1 2-2h8a2.4 2.4 0 0 1 1.704.706l3.588 3.588A2.4 2.4 0 0 1 20 8v12a2 2 0 0 1-2 2z"></path><path d="M14 2v5a1 1 0 0 0 1 1h5"></path><path d="M10 9H8"></path><path d="M16 13H8"></path><path d="M16 17H8"></path></svg>
        <text x="316" y="84" text-anchor="middle" font-family="ui-sans-serif, system-ui, sans-serif" font-size="12" font-weight="600" fill="#f4efe9">Datei</text>
      </g>
    

      <g>
        <rect x="376" y="16" width="108" height="80" rx="16" fill="rgba(255,255,255,0.03)" stroke="rgba(255,255,255,0.12)"/>
        <circle cx="430" cy="44" r="18" fill="rgba(20,19,18,0.9)" stroke="rgba(255,255,255,0.12)"/>
        <svg x="425" y="32" xmlns="http://www.w3.org/2000/svg" width="22" height="22" viewBox="0 0 24 24" fill="none" stroke="#f4efe9" stroke-width="2" stroke-linecap="round" stroke-linejoin="round" class="lucide lucide-pencil" aria-hidden="true"><path d="M21.174 6.812a1 1 0 0 0-3.986-3.987L3.842 16.174a2 2 0 0 0-.5.83l-1.321 4.352a.5.5 0 0 0 .623.622l4.353-1.32a2 2 0 0 0 .83-.497z"></path><path d="m15 5 4 4"></path></svg>
        <text x="436" y="84" text-anchor="middle" font-family="ui-sans-serif, system-ui, sans-serif" font-size="12" font-weight="600" fill="#f4efe9">Ändern</text>
      </g>
    

      <g>
        <rect x="16" y="108" width="108" height="80" rx="16" fill="rgba(255,255,255,0.03)" stroke="rgba(255,255,255,0.12)"/>
        <circle cx="70" cy="136" r="18" fill="rgba(20,19,18,0.9)" stroke="rgba(255,255,255,0.12)"/>
        <svg x="65" y="124" xmlns="http://www.w3.org/2000/svg" width="22" height="22" viewBox="0 0 24 24" fill="none" stroke="#f4efe9" stroke-width="2" stroke-linecap="round" stroke-linejoin="round" class="lucide lucide-globe" aria-hidden="true"><circle cx="12" cy="12" r="10"></circle><path d="M12 2a14.5 14.5 0 0 0 0 20 14.5 14.5 0 0 0 0-20"></path><path d="M2 12h20"></path></svg>
        <text x="76" y="176" text-anchor="middle" font-family="ui-sans-serif, system-ui, sans-serif" font-size="12" font-weight="600" fill="#f4efe9">Web</text>
      </g>
    

      <g>
        <rect x="136" y="108" width="108" height="80" rx="16" fill="rgba(255,255,255,0.03)" stroke="rgba(255,255,255,0.12)"/>
        <circle cx="190" cy="136" r="18" fill="rgba(20,19,18,0.9)" stroke="rgba(255,255,255,0.12)"/>
        <svg x="185" y="124" xmlns="http://www.w3.org/2000/svg" width="22" height="22" viewBox="0 0 24 24" fill="none" stroke="#f4efe9" stroke-width="2" stroke-linecap="round" stroke-linejoin="round" class="lucide lucide-bot" aria-hidden="true"><path d="M12 8V4H8"></path><rect width="16" height="12" x="4" y="8" rx="2"></rect><path d="M2 14h2"></path><path d="M20 14h2"></path><path d="M15 13v2"></path><path d="M9 13v2"></path></svg>
        <text x="196" y="176" text-anchor="middle" font-family="ui-sans-serif, system-ui, sans-serif" font-size="12" font-weight="600" fill="#f4efe9">Agent</text>
      </g>
    

      <g>
        <rect x="256" y="108" width="108" height="80" rx="16" fill="rgba(255,255,255,0.03)" stroke="rgba(255,255,255,0.12)"/>
        <circle cx="310" cy="136" r="18" fill="rgba(20,19,18,0.9)" stroke="rgba(255,255,255,0.12)"/>
        <svg x="305" y="124" xmlns="http://www.w3.org/2000/svg" width="22" height="22" viewBox="0 0 24 24" fill="none" stroke="#f4efe9" stroke-width="2" stroke-linecap="round" stroke-linejoin="round" class="lucide lucide-mail" aria-hidden="true"><path d="m22 7-8.991 5.727a2 2 0 0 1-2.009 0L2 7"></path><rect x="2" y="4" width="20" height="16" rx="2"></rect></svg>
        <text x="316" y="176" text-anchor="middle" font-family="ui-sans-serif, system-ui, sans-serif" font-size="12" font-weight="600" fill="#f4efe9">Mail</text>
      </g>
    

      <g>
        <rect x="376" y="108" width="108" height="80" rx="16" fill="rgba(255,255,255,0.03)" stroke="rgba(255,255,255,0.12)"/>
        <circle cx="430" cy="136" r="18" fill="rgba(20,19,18,0.9)" stroke="rgba(255,255,255,0.12)"/>
        <svg x="425" y="124" xmlns="http://www.w3.org/2000/svg" width="22" height="22" viewBox="0 0 24 24" fill="none" stroke="#f4efe9" stroke-width="2" stroke-linecap="round" stroke-linejoin="round" class="lucide lucide-wrench" aria-hidden="true"><path d="M14.7 6.3a1 1 0 0 0 0 1.4l1.6 1.6a1 1 0 0 0 1.4 0l3.106-3.105c.32-.322.863-.22.983.218a6 6 0 0 1-8.259 7.057l-7.91 7.91a1 1 0 0 1-2.999-3l7.91-7.91a6 6 0 0 1 7.057-8.259c.438.12.54.662.219.984z"></path></svg>
        <text x="436" y="176" text-anchor="middle" font-family="ui-sans-serif, system-ui, sans-serif" font-size="12" font-weight="600" fill="#f4efe9">Tool</text>
      </g>
    

      <g>
        <rect x="16" y="200" width="108" height="80" rx="16" fill="rgba(255,255,255,0.03)" stroke="rgba(255,255,255,0.12)"/>
        <circle cx="70" cy="228" r="18" fill="rgba(20,19,18,0.9)" stroke="rgba(255,255,255,0.12)"/>
        <svg x="65" y="216" xmlns="http://www.w3.org/2000/svg" width="22" height="22" viewBox="0 0 24 24" fill="none" stroke="#f4efe9" stroke-width="2" stroke-linecap="round" stroke-linejoin="round" class="lucide lucide-message-square" aria-hidden="true"><path d="M22 17a2 2 0 0 1-2 2H6.828a2 2 0 0 0-1.414.586l-2.202 2.202A.71.71 0 0 1 2 21.286V5a2 2 0 0 1 2-2h16a2 2 0 0 1 2 2z"></path></svg>
        <text x="76" y="268" text-anchor="middle" font-family="ui-sans-serif, system-ui, sans-serif" font-size="12" font-weight="600" fill="#f4efe9">Antwort</text>
      </g>
    

      <g>
        <rect x="136" y="200" width="108" height="80" rx="16" fill="rgba(217,119,87,0.12)" stroke="rgba(217,119,87,0.45)"/>
        <circle cx="190" cy="228" r="18" fill="rgba(20,19,18,0.9)" stroke="rgba(217,119,87,0.45)"/>
        <svg x="185" y="216" xmlns="http://www.w3.org/2000/svg" width="22" height="22" viewBox="0 0 24 24" fill="none" stroke="#f4efe9" stroke-width="2" stroke-linecap="round" stroke-linejoin="round" class="lucide lucide-check" aria-hidden="true"><path d="M20 6 9 17l-5-5"></path></svg>
        <text x="196" y="268" text-anchor="middle" font-family="ui-sans-serif, system-ui, sans-serif" font-size="12" font-weight="600" fill="#f4efe9">Fertig</text>
      </g>
    

      <g>
        <rect x="256" y="200" width="108" height="80" rx="16" fill="rgba(255,255,255,0.03)" stroke="rgba(255,255,255,0.12)"/>
        <circle cx="310" cy="228" r="18" fill="rgba(20,19,18,0.9)" stroke="rgba(255,255,255,0.12)"/>
        <svg x="305" y="216" xmlns="http://www.w3.org/2000/svg" width="22" height="22" viewBox="0 0 24 24" fill="none" stroke="#f4efe9" stroke-width="2" stroke-linecap="round" stroke-linejoin="round" class="lucide lucide-chevron-right" aria-hidden="true"><path d="m9 18 6-6-6-6"></path></svg>
        <text x="316" y="268" text-anchor="middle" font-family="ui-sans-serif, system-ui, sans-serif" font-size="12" font-weight="600" fill="#f4efe9">Weiter</text>
      </g>
    
</svg>
